<?xml version="1.0" encoding="utf-8"?>
<!-- Generator: Adobe Illustrator 18.1.1, SVG Export Plug-In . SVG Version: 6.00 Build 0)  -->
<svg version="1.1" xmlns="http://www.w3.org/2000/svg" xmlns:xlink="http://www.w3.org/1999/xlink" x="0px" y="0px" width="191.9px"
	 height="110.6px" viewBox="0 0 191.9 110.6" enable-background="new 0 0 191.9 110.6" xml:space="preserve">
<g id="list">
</g>
<g id="stars">
</g>
<g id="test">
</g>
<g id="originals">
	<circle fill="#FFFFFF" cx="131.6" cy="20.7" r="3.3"/>
	<circle fill="#FFFFFF" cx="115.4" cy="14.6" r="4.1"/>
	<circle fill="#FFFFFF" cx="96" cy="7.2" r="6.1"/>
	<circle fill="#FFFFFF" cx="57.5" cy="21.4" r="3.5"/>
	<circle fill="#FFFFFF" cx="74" cy="14.6" r="4"/>
	<path fill="#FFFFFF" d="M172.1,38.2c0-0.8-0.8-1.4-1.8-1.4H19.8c-1,0-1.8,0.6-1.8,1.4l-16.5,68c0,0.8,0.8,1.4,1.8,1.4l81.2-1.8v1.5
		c0,1,0.8,1.8,1.8,1.8h19.2c1,0,1.8-0.8,1.8-1.8v-1.5l81.2,1.8c1,0,1.8-0.6,1.8-1.4L172.1,38.2z"/>
	<path fill="none" stroke="#FCC941" stroke-width="2" stroke-miterlimit="10" d="M1.5,102.1v3.7c0,0.8,0.8,1.4,1.8,1.4l81.2-1.8v1.5
		c0,1,0.8,1.8,1.8,1.8h19.2c1,0,1.8-0.8,1.8-1.8v-1.5l81.2,1.8c1,0,1.8-0.6,1.8-1.4v-3.7"/>
	<path opacity="0.3" fill="#FCC941" d="M172.1,38.2c0-0.8-0.8-1.4-1.8-1.4H19.8c-1,0-1.8,0.6-1.8,1.4l-16.5,64
		c0,0.8,0.8,1.4,1.8,1.4l81.2-1.8v1.5c0,1,0.8,1.8,1.8,1.8h19.2c1,0,1.8-0.8,1.8-1.8v-1.5l81.2,1.8c1,0,1.8-0.6,1.8-1.4L172.1,38.2z
		"/>
	<path fill="none" stroke="#FCC941" stroke-width="2" stroke-miterlimit="10" d="M172.1,38.2c0-0.8-0.8-1.4-1.8-1.4H19.8
		c-1,0-1.8,0.6-1.8,1.4l-16.5,64c0,0.8,0.8,1.4,1.8,1.4l81.2-1.8v1.5c0,1,0.8,1.8,1.8,1.8h19.2c1,0,1.8-0.8,1.8-1.8v-1.5l81.2,1.8
		c1,0,1.8-0.6,1.8-1.4L172.1,38.2z"/>
	<path fill="#FFFFFF" stroke="#FCC941" stroke-width="2" stroke-miterlimit="10" d="M94.6,96.7c0,0-13.2-0.7-27.1-0.7
		s-44.1,2.6-44.1,2.6c-0.8,0-1.4-0.8-1.4-1.8L40,44.2c0-1,0.6-1.8,1.4-1.8c0,0,16.9-8.3,33.6-8.3S96,43.2,96,44.2v50.7
		C96,95.8,95.3,96.7,94.6,96.7z"/>
	<path fill="#FFFFFF" stroke="#FCC941" stroke-width="2" stroke-miterlimit="10" d="M94.3,96.7c0,0-11.2-4.3-27.7-4.3
		s-46.5,6.1-46.5,6.1c-0.9,0-1.6-0.8-1.6-1.8l11.8-52.5c0-1,0.7-1.8,1.6-1.8c0,0,19.8-8.3,39.5-8.3S96,43.2,96,44.2v50.7
		C96,95.8,95.2,96.7,94.3,96.7z"/>
	<path fill="#FFFFFF" stroke="#FCC941" stroke-width="2" stroke-miterlimit="10" d="M94.1,95.7c0,0-12.5-6.5-30.9-6.5
		s-51.8,8.3-51.8,8.3c-1,0-1.8-0.8-1.8-1.8l13.2-52.5c0-1,0.8-1.8,1.8-1.8c0,0,22.1-10.7,44-10.7S96,42.3,96,43.3v50.7
		C96,94.9,95.1,95.7,94.1,95.7z"/>
	<path fill="#FFFFFF" stroke="#FCC941" stroke-width="2" stroke-miterlimit="10" d="M97.4,96.7l71.2,1.8c0.8,0,1.4-0.8,1.4-1.8
		l-18.1-52.5c0-1-0.6-1.8-1.4-1.8c0,0-16.9-8.3-33.6-8.3S96,43.2,96,44.2v50.7C96,95.8,96.6,96.7,97.4,96.7z"/>
	<path fill="#FFFFFF" stroke="#FCC941" stroke-width="2" stroke-miterlimit="10" d="M97.6,96.7c0,0,11.2-2.5,27.7-2.5
		s46.5,4.3,46.5,4.3c0.9,0,1.6-0.8,1.6-1.8l-11.8-52.5c0-1-0.7-1.8-1.6-1.8c0,0-19.8-8.3-39.5-8.3S96,43.2,96,44.2v50.7
		C96,95.8,96.7,96.7,97.6,96.7z"/>
	<path fill="#FFFFFF" stroke="#FCC941" stroke-width="2" stroke-miterlimit="10" d="M97.8,95.7c0,0,12.5-5.5,30.9-5.5
		s51.8,7.3,51.8,7.3c1,0,1.8-0.8,1.8-1.8l-13.2-52.5c0-1-0.8-1.8-1.8-1.8c0,0-22.1-10.7-44-10.7S96,42.3,96,43.3v50.7
		C96,94.9,96.8,95.7,97.8,95.7z"/>
	<g>
		<circle fill="none" stroke="#FCC941" stroke-width="2" stroke-miterlimit="10" cx="131.8" cy="20.7" r="3.1"/>
		<path fill="#FFFFFF" stroke="#FCC941" stroke-width="2" stroke-miterlimit="10" d="M139.8,57.5c0,0-4.4,3.1-8.1,3.1
			c-3.7,0-7.9-3.1-7.9-3.1c-0.4,0-0.8-0.6-0.8-1.3l5.8-33.3c0-0.7,0.3-1.3,0.8-1.3h4.4c0.4,0,0.8,0.6,0.8,1.3l5.8,33.3
			C140.6,56.9,140.3,57.5,139.8,57.5z"/>
		<line fill="none" stroke="#FCC941" stroke-width="2" stroke-miterlimit="10" x1="131.8" y1="17.6" x2="131.7" y2="60.6"/>
		<line fill="#FFFFFF" stroke="#FCC941" stroke-width="2" stroke-miterlimit="10" x1="128.7" y1="25.1" x2="131.8" y2="26.3"/>
		<line fill="#FFFFFF" stroke="#FCC941" stroke-width="2" stroke-miterlimit="10" x1="127.7" y1="29.9" x2="131.8" y2="31.6"/>
		<line fill="#FFFFFF" stroke="#FCC941" stroke-width="2" stroke-miterlimit="10" x1="126.8" y1="34.8" x2="131.8" y2="36.7"/>
		<line fill="#FFFFFF" stroke="#FCC941" stroke-width="2" stroke-miterlimit="10" x1="126.2" y1="40.6" x2="131.8" y2="42.6"/>
		<line fill="#FFFFFF" stroke="#FCC941" stroke-width="2" stroke-miterlimit="10" x1="125" y1="46.3" x2="131.8" y2="48.9"/>
		<line fill="#FFFFFF" stroke="#FCC941" stroke-width="2" stroke-miterlimit="10" x1="123.9" y1="52" x2="131.8" y2="55.4"/>
		<line fill="#FFFFFF" stroke="#FCC941" stroke-width="2" stroke-miterlimit="10" x1="134.9" y1="25.1" x2="131.8" y2="26.3"/>
		<line fill="#FFFFFF" stroke="#FCC941" stroke-width="2" stroke-miterlimit="10" x1="136" y1="29.9" x2="131.8" y2="31.6"/>
		<line fill="#FFFFFF" stroke="#FCC941" stroke-width="2" stroke-miterlimit="10" x1="136.8" y1="34.8" x2="131.8" y2="36.7"/>
		<line fill="#FFFFFF" stroke="#FCC941" stroke-width="2" stroke-miterlimit="10" x1="137.4" y1="40.6" x2="131.8" y2="42.6"/>
		<line fill="#FFFFFF" stroke="#FCC941" stroke-width="2" stroke-miterlimit="10" x1="138.7" y1="46.3" x2="131.8" y2="48.9"/>
		<line fill="#FFFFFF" stroke="#FCC941" stroke-width="2" stroke-miterlimit="10" x1="139.7" y1="52" x2="131.8" y2="55.4"/>
	</g>
	<path opacity="0.3" fill="#FCC941" d="M131.6,17.6c-1.6,0.1-2.9,1.5-2.9,3.1c0,0.5,0.1,0.9,0.3,1.4c-0.1,0.2-0.2,0.5-0.2,0.8
		L123,56.2c0,0.7,0.3,1.3,0.8,1.3c0,0,4.1,3,7.8,3.1V17.6z"/>
	<g>
		<circle fill="none" stroke="#FCC941" stroke-width="2" stroke-miterlimit="10" cx="115.5" cy="14.7" r="4.2"/>
		<path fill="#FFFFFF" stroke="#FCC941" stroke-width="2" stroke-miterlimit="10" d="M126.3,64c0,0-5.9,4.1-10.9,4.1
			S104.7,64,104.7,64c-0.6,0-1-0.8-1-1.7l7.8-44.6c0-0.9,0.5-1.7,1-1.7h5.9c0.6,0,1,0.8,1,1.7l7.8,44.6
			C127.3,63.2,126.8,64,126.3,64z"/>
		<line fill="none" stroke="#FCC941" stroke-width="2" stroke-miterlimit="10" x1="115.5" y1="10.5" x2="115.4" y2="68.1"/>
		<line fill="#FFFFFF" stroke="#FCC941" stroke-width="2" stroke-miterlimit="10" x1="111.3" y1="20.6" x2="115.5" y2="22.2"/>
		<line fill="#FFFFFF" stroke="#FCC941" stroke-width="2" stroke-miterlimit="10" x1="110" y1="27" x2="115.5" y2="29.2"/>
		<line fill="#FFFFFF" stroke="#FCC941" stroke-width="2" stroke-miterlimit="10" x1="108.8" y1="33.5" x2="115.5" y2="36.1"/>
		<line fill="#FFFFFF" stroke="#FCC941" stroke-width="2" stroke-miterlimit="10" x1="108" y1="41.3" x2="115.5" y2="44.1"/>
		<line fill="#FFFFFF" stroke="#FCC941" stroke-width="2" stroke-miterlimit="10" x1="106.3" y1="49" x2="115.5" y2="52.5"/>
		<line fill="#FFFFFF" stroke="#FCC941" stroke-width="2" stroke-miterlimit="10" x1="104.9" y1="56.7" x2="115.5" y2="61.1"/>
		<line fill="#FFFFFF" stroke="#FCC941" stroke-width="2" stroke-miterlimit="10" x1="119.7" y1="20.6" x2="115.5" y2="22.2"/>
		<line fill="#FFFFFF" stroke="#FCC941" stroke-width="2" stroke-miterlimit="10" x1="121.1" y1="27" x2="115.5" y2="29.2"/>
		<line fill="#FFFFFF" stroke="#FCC941" stroke-width="2" stroke-miterlimit="10" x1="122.2" y1="33.5" x2="115.5" y2="36.1"/>
		<line fill="#FFFFFF" stroke="#FCC941" stroke-width="2" stroke-miterlimit="10" x1="123" y1="41.3" x2="115.5" y2="44.1"/>
		<line fill="#FFFFFF" stroke="#FCC941" stroke-width="2" stroke-miterlimit="10" x1="124.7" y1="49" x2="115.5" y2="52.5"/>
		<line fill="#FFFFFF" stroke="#FCC941" stroke-width="2" stroke-miterlimit="10" x1="126.1" y1="56.7" x2="115.5" y2="61.1"/>
	</g>
	<g>
		<g>
			<circle fill="none" stroke="#FCC941" stroke-width="2" stroke-miterlimit="10" cx="57.5" cy="20.7" r="3.1"/>
			<path fill="#FFFFFF" stroke="#FCC941" stroke-width="2" stroke-miterlimit="10" d="M49.4,57.5c0,0,4.4,3.1,8.1,3.1
				s7.9-3.1,7.9-3.1c0.4,0,0.8-0.6,0.8-1.3l-5.8-33.3c0-0.7-0.3-1.3-0.8-1.3h-4.4c-0.4,0-0.8,0.6-0.8,1.3l-5.8,33.3
				C48.7,56.9,49,57.5,49.4,57.5z"/>
			<line fill="none" stroke="#FCC941" stroke-width="2" stroke-miterlimit="10" x1="57.5" y1="17.6" x2="57.5" y2="60.6"/>
			<line fill="#FFFFFF" stroke="#FCC941" stroke-width="2" stroke-miterlimit="10" x1="60.6" y1="25.1" x2="57.5" y2="26.3"/>
			<line fill="#FFFFFF" stroke="#FCC941" stroke-width="2" stroke-miterlimit="10" x1="61.6" y1="29.9" x2="57.5" y2="31.6"/>
			<line fill="#FFFFFF" stroke="#FCC941" stroke-width="2" stroke-miterlimit="10" x1="62.5" y1="34.8" x2="57.5" y2="36.7"/>
			<line fill="#FFFFFF" stroke="#FCC941" stroke-width="2" stroke-miterlimit="10" x1="63.1" y1="40.6" x2="57.5" y2="42.6"/>
			<line fill="#FFFFFF" stroke="#FCC941" stroke-width="2" stroke-miterlimit="10" x1="64.3" y1="46.3" x2="57.5" y2="48.9"/>
			<line fill="#FFFFFF" stroke="#FCC941" stroke-width="2" stroke-miterlimit="10" x1="65.4" y1="52" x2="57.5" y2="55.4"/>
			<line fill="#FFFFFF" stroke="#FCC941" stroke-width="2" stroke-miterlimit="10" x1="54.3" y1="25.1" x2="57.5" y2="26.3"/>
			<line fill="#FFFFFF" stroke="#FCC941" stroke-width="2" stroke-miterlimit="10" x1="53.3" y1="29.9" x2="57.5" y2="31.6"/>
			<line fill="#FFFFFF" stroke="#FCC941" stroke-width="2" stroke-miterlimit="10" x1="52.5" y1="34.8" x2="57.5" y2="36.7"/>
			<line fill="#FFFFFF" stroke="#FCC941" stroke-width="2" stroke-miterlimit="10" x1="51.9" y1="40.6" x2="57.5" y2="42.6"/>
			<line fill="#FFFFFF" stroke="#FCC941" stroke-width="2" stroke-miterlimit="10" x1="50.6" y1="46.3" x2="57.5" y2="48.9"/>
			<line fill="#FFFFFF" stroke="#FCC941" stroke-width="2" stroke-miterlimit="10" x1="49.6" y1="52" x2="57.5" y2="55.4"/>
		</g>
		<path opacity="0.3" fill="#FCC941" d="M56.7,17.6c-1.6,0.1-2.9,1.5-2.9,3.1c0,0.5,0.1,0.9,0.3,1.4c-0.1,0.2-0.2,0.5-0.2,0.8
			l-5.8,33.3c0,0.7,0.3,1.3,0.8,1.3c0,0,4.1,3,7.8,3.1V17.6z"/>
	</g>
	<path opacity="0.3" fill="#FCC941" d="M115.6,10.6C115.6,10.6,115.5,10.5,115.6,10.6c-2.4,0-4.3,1.9-4.3,4.2c0,0.7,0.2,1.3,0.4,1.8
		c-0.2,0.3-0.3,0.7-0.3,1.1l-7.8,44.6c0,0.9,0.5,1.7,1,1.7c0,0,5.6,4.1,10.6,4.1c0.1,0,0.1,0,0.2,0V10.6z"/>
	<g>
		<circle fill="none" stroke="#FCC941" stroke-width="2" stroke-miterlimit="10" cx="74.1" cy="14.7" r="4.2"/>
		<path fill="#FFFFFF" stroke="#FCC941" stroke-width="2" stroke-miterlimit="10" d="M63.4,64c0,0,5.9,4.1,10.9,4.1S84.9,64,84.9,64
			c0.6,0,1-0.8,1-1.7l-7.8-44.6c0-0.9-0.5-1.7-1-1.7h-5.9c-0.6,0-1,0.8-1,1.7l-7.8,44.6C62.3,63.2,62.8,64,63.4,64z"/>
		<line fill="none" stroke="#FCC941" stroke-width="2" stroke-miterlimit="10" x1="74.1" y1="10.5" x2="74.2" y2="68.1"/>
		<line fill="#FFFFFF" stroke="#FCC941" stroke-width="2" stroke-miterlimit="10" x1="78.3" y1="20.6" x2="74.1" y2="22.2"/>
		<line fill="#FFFFFF" stroke="#FCC941" stroke-width="2" stroke-miterlimit="10" x1="79.7" y1="27" x2="74.1" y2="29.2"/>
		<line fill="#FFFFFF" stroke="#FCC941" stroke-width="2" stroke-miterlimit="10" x1="80.8" y1="33.5" x2="74.1" y2="36.1"/>
		<line fill="#FFFFFF" stroke="#FCC941" stroke-width="2" stroke-miterlimit="10" x1="81.6" y1="41.3" x2="74.1" y2="44.1"/>
		<line fill="#FFFFFF" stroke="#FCC941" stroke-width="2" stroke-miterlimit="10" x1="83.3" y1="49" x2="74.1" y2="52.5"/>
		<line fill="#FFFFFF" stroke="#FCC941" stroke-width="2" stroke-miterlimit="10" x1="84.7" y1="56.7" x2="74.1" y2="61.1"/>
		<line fill="#FFFFFF" stroke="#FCC941" stroke-width="2" stroke-miterlimit="10" x1="70" y1="20.6" x2="74.1" y2="22.2"/>
		<line fill="#FFFFFF" stroke="#FCC941" stroke-width="2" stroke-miterlimit="10" x1="68.6" y1="27" x2="74.1" y2="29.2"/>
		<line fill="#FFFFFF" stroke="#FCC941" stroke-width="2" stroke-miterlimit="10" x1="67.4" y1="33.5" x2="74.1" y2="36.1"/>
		<line fill="#FFFFFF" stroke="#FCC941" stroke-width="2" stroke-miterlimit="10" x1="66.6" y1="41.3" x2="74.1" y2="44.1"/>
		<line fill="#FFFFFF" stroke="#FCC941" stroke-width="2" stroke-miterlimit="10" x1="64.9" y1="49" x2="74.1" y2="52.5"/>
		<line fill="#FFFFFF" stroke="#FCC941" stroke-width="2" stroke-miterlimit="10" x1="63.5" y1="56.7" x2="74.1" y2="61.1"/>
	</g>
	<path opacity="0.3" fill="#FCC941" d="M74.5,10.6C74.5,10.6,74.5,10.5,74.5,10.6c-2.4,0-4.3,1.9-4.3,4.2c0,0.7,0.2,1.3,0.4,1.8
		c-0.2,0.3-0.3,0.7-0.3,1.1l-7.8,44.6c0,0.9,0.5,1.7,1,1.7c0,0,5.6,4.1,10.6,4.1c0.1,0,0.1,0,0.2,0V10.6z"/>
	<g>
		<circle fill="none" stroke="#FCC941" stroke-width="2" stroke-miterlimit="10" cx="96" cy="7.2" r="5.7"/>
		<path fill="#FFFFFF" stroke="#FCC941" stroke-width="2" stroke-miterlimit="10" d="M110.8,75.1l-15,7.6l-14.7-7.6
			c-0.8,0-1.4-1.1-1.4-2.4l10.7-61.4c0-1.3,0.6-2.4,1.4-2.4h8.2c0.8,0,1.4,1.1,1.4,2.4l10.7,61.4C112.2,74,111.6,75.1,110.8,75.1z"
			/>
		<path opacity="0.3" fill="#FCC941" d="M95.9,1.5c-3.2,0-5.7,2.6-5.7,5.7c0,0.9,0.2,1.8,0.6,2.5c-0.2,0.4-0.4,0.9-0.4,1.5
			L79.7,72.7c0,1.3,0.6,2.4,1.4,2.4l14.7,7.6l0.1-0.1V1.5z"/>
		<line fill="none" stroke="#FCC941" stroke-width="2" stroke-miterlimit="10" x1="96" y1="1.5" x2="96" y2="82.7"/>
		<line fill="#FFFFFF" stroke="#FCC941" stroke-width="2" stroke-miterlimit="10" x1="90.2" y1="15.3" x2="96" y2="17.6"/>
		<line fill="#FFFFFF" stroke="#FCC941" stroke-width="2" stroke-miterlimit="10" x1="88.3" y1="24.2" x2="96" y2="27.2"/>
		<line fill="#FFFFFF" stroke="#FCC941" stroke-width="2" stroke-miterlimit="10" x1="86.7" y1="33.2" x2="96" y2="36.7"/>
		<line fill="#FFFFFF" stroke="#FCC941" stroke-width="2" stroke-miterlimit="10" x1="85.6" y1="43.9" x2="96" y2="47.7"/>
		<line fill="#FFFFFF" stroke="#FCC941" stroke-width="2" stroke-miterlimit="10" x1="83.3" y1="54.5" x2="96" y2="59.3"/>
		<line fill="#FFFFFF" stroke="#FCC941" stroke-width="2" stroke-miterlimit="10" x1="81.4" y1="65.1" x2="96" y2="71.2"/>
		<line fill="#FFFFFF" stroke="#FCC941" stroke-width="2" stroke-miterlimit="10" x1="101.7" y1="15.3" x2="96" y2="17.6"/>
		<line fill="#FFFFFF" stroke="#FCC941" stroke-width="2" stroke-miterlimit="10" x1="103.6" y1="24.2" x2="96" y2="27.2"/>
		<line fill="#FFFFFF" stroke="#FCC941" stroke-width="2" stroke-miterlimit="10" x1="105.2" y1="33.2" x2="96" y2="36.7"/>
		<line fill="#FFFFFF" stroke="#FCC941" stroke-width="2" stroke-miterlimit="10" x1="106.3" y1="43.9" x2="96" y2="47.7"/>
		<line fill="#FFFFFF" stroke="#FCC941" stroke-width="2" stroke-miterlimit="10" x1="108.6" y1="54.5" x2="96" y2="59.3"/>
		<line fill="#FFFFFF" stroke="#FCC941" stroke-width="2" stroke-miterlimit="10" x1="110.6" y1="65.1" x2="96" y2="71.2"/>
	</g>
</g>
<g id="Layer_5">
</g>
</svg>
