<svg width="313" height="148" viewBox="0 0 313 148" xmlns="http://www.w3.org/2000/svg"><title>Untitled 2</title><g fill="#151515" fill-rule="evenodd"><path d="M191.146 78.802c-.023-2.62-.175-5.238-.27-7.857-.037-1.06-.04-2.124-.114-3.183-.015-.217-.238-.548-.42-.59-.17-.038-.503.19-.604.385-.44.84-.885 1.69-1.21 2.577-1.776 4.85-3.516 9.712-5.273 14.568-.05.14-.15.265-.22.4-.392.734-.82 1.453-1.166 2.21-1.097 2.386-2.056 4.843-3.278 7.162-.808 1.533-1.948 2.898-3.002 4.29-.417.55-1.045.855-1.66.21-1.466-1.537-3.064-2.924-4.066-4.896-1.515-2.983-2.536-6.125-3.382-9.328-1.986-7.51-2.306-15.206-2.222-22.913.04-3.687.42-7.372.72-11.052.33-4.025.63-8.058 1.156-12.06.55-4.19 1.34-8.35 2.053-12.52.107-.627.36-1.23.545-1.845.402.477.573.898.716 1.33 2.975 8.946 5.458 18.02 6.98 27.338.33 2.027.516 4.078.835 6.108.192 1.22.526 1.414 1.776 1.425.718.007 1.436.123 2.15.102 1.61-.047 3.96-.91 4.387-2.99.22-1.075.478-2.19.41-3.267-.22-3.568-.35-7.165-.93-10.683-1.47-8.92-4.648-17.364-7.662-25.837-.718-2.02-1.942-3.807-3.514-5.31-.97-.452-1.762-1.222-2.732-1.668-3.107-.685-5.95-.23-8.77.43-.54.127-1.242.496-1.448.946-.805 1.758-1.666 3.543-2.094 5.412-.916 4.008-1.68 8.058-2.314 12.12-.745 4.777-1.5 9.568-1.858 14.382-.428 5.77-.48 11.57-.62 17.36-.132 5.423.427 10.804 1.25 16.158.614 4.003 1.787 7.865 3.224 11.638.536 1.407 1.45 2.665 2.037 4.056 1.24 2.935 3.507 4.977 5.94 6.81 2.927 2.206 6.39 2.458 9.924 2.276 2.18-.113 4.08-.883 5.757-2.244 1.743-1.416 3.093-3.16 4.064-5.177 1.906-3.96 3.404-8.08 4.55-12.316.343-1.26.368-2.637.356-3.958M229.235 62.44c.19-.567.356-1.144.572-1.702 1.406-3.624 2.837-7.238 4.222-10.87.233-.616.37-1.298.4-1.956.095-1.993 1.804-3.662 3.8-3.64.42.005.867.06 1.25-.065 1.404-.452 2.598.23 3.842.632.75.24 1.032.867 1.137 1.58.522 3.578 1.076 7.153 1.542 10.738.688 5.3 1.673 10.538 2.986 15.718.213.842.605 1.194 1.485 1.218 1.365.038 2.727.192 4.088.32 1.08.1 1.26-.036 1.413-1.104.834-5.83.766-11.69.654-17.56-.05-2.66.17-5.323.23-7.986.15-6.78.237-13.563.437-20.342.097-3.276.398-6.546.594-9.82.235-3.918.435-7.84.693-11.756.11-1.66.298-3.317.53-4.964.035-.245.492-.566.793-.616 1.22-.203 2.41.603 2.964 1.767 1.032 2.17 1.49 4.425 1.573 6.838.06 1.726.663 3.426.915 5.152.213 1.463.256 2.95.398 4.423.52 5.4.43 10.804.172 16.212-.17 3.578-.263 7.162-.533 10.733-.197 2.618-.65 5.215-.942 7.826-.15 1.344-.296 2.652.005 4.058.268 1.248-.147 2.64-.24 3.97-.105 1.473-.142 2.953-.29 4.42-.143 1.4-.39 2.79-.595 4.183-.212 1.43-.486 2.856-.63 4.294-.132 1.31.11 1.6 1.373 1.378 2.7-.47 5.416-.927 8.046-1.672 3.626-1.027 7.177-2.32 10.765-3.49 5.794-1.887 11.588-3.776 17.39-5.642 2.837-.913 5.796-.83 8.722-.93 1.574-.052 3.084 1.033 3.39 2.24.242.943-.042 1.55-1.003 1.68-8.02 1.08-15.343 4.485-22.998 6.782-7.926 2.38-15.932 4.46-24.232 5.105-.266.02-.53.073-.793.11-.503.067-.646.344-.46.804.057.14.135.274.192.415 1.024 2.542 2.225 5.03 3.033 7.64 2.178 7.024 4.345 14.066 5.275 21.4.553 4.35.907 8.72.635 13.114-.166 2.695-.253 5.405-.62 8.075-.193 1.4-.842 2.762-1.412 4.087-.598 1.39-1.923 1.488-3.21 1.464-.76-.014-1.527-.11-2.27-.263-1.145-.235-2.12-.712-2.766-1.81-1.178-2.004-1.89-4.167-2.336-6.418-.472-2.392-.896-4.795-1.246-7.207-.482-3.313-.902-6.636-1.3-9.96-.404-3.403-.758-6.812-1.11-10.22-.07-.68-.04-1.37-.043-2.055-.004-.762-.342-1.18-1.126-1.318-1.084-.193-2.216-.333-3.208-.768-.823-.362-1.764-.97-2.147-1.727-1.29-2.544-2.46-5.16-3.476-7.825-2.595-6.815-4.506-13.84-6.075-20.956-.403-1.823-.77-3.654-1.168-5.478-.054-.244-.208-.466-.315-.7-.18.213-.453.395-.53.64-.978 3.087-1.916 6.187-2.888 9.277-1.296 4.114-2.357 8.286-2.904 12.567-.328 2.562-.768 5.114-.37 7.736.534 3.537.91 7.1 1.36 10.65.26 2.05-.606 2.934-2.55 2.23-1.547-.56-2.95-1.537-4.378-2.4-.265-.16-.384-.635-.48-.99-.262-.953-.533-1.91-.693-2.883-.414-2.513-.857-5.026-1.13-7.556-.474-4.39-.882-8.79-1.22-13.195-.484-6.305-.888-12.616-1.31-18.925-.17-2.51-.292-5.02-.453-7.53-.02-.297-.073-.647-.248-.854-.108-.127-.664-.113-.706-.02-1.392 3.085-4.466 3.685-7.14 4.87-.31.14-.65.22-.976.322-.686.215-.777.504-.36 1.16.85 1.342 1.684 2.716 2.34 4.16 2.004 4.434 2.788 9.182 3.113 13.978.158 2.338-.177 4.718-.397 7.07-.185 1.97-.427 3.946-.828 5.88-.444 2.152-.874 4.325-2.194 6.197-1.91 2.71-4.403 4.126-7.78 3.845-4.017-.335-7.333-2.144-9.81-5.19-1.57-1.93-2.396-4.318-2.82-6.883-.597-3.63-.763-7.27-.928-10.92-.14-3.105.225-6.193.472-9.282.26-3.225.43-6.46.788-9.672.23-2.067.425-4.135 1.158-6.153.75-2.067 1.08-4.283 2.238-6.213.364-.608.614-1.283.962-1.9.094-.167.344-.3.546-.345 2.61-.57 5.09-.233 7.338 1.253.966.64 1.235 2.55.692 4.032-.538 1.467-1.053 2.943-1.62 4.4-.275.703-.05 1.027.555 1.473 1.453 1.07 2.95 1.134 4.535.523 1.917-.74 3.92-1.348 5.68-2.37 1.452-.84 2.547-2.23 3.375-3.78.916-1.713.918-3.475.586-5.31-.22-1.22.148-1.553 1.36-1.246 2.227.566 3.786 1.967 4.967 3.908 1.646 2.706 1.947 5.75 2.27 8.773.33 3.105.47 6.23.72 9.344.048.59.224 1.17.34 1.755l.345.02zm-20.667 13.903c.012-1.555.01-2.85.033-4.145.078-4.303-.497-8.5-1.88-12.592-.555-1.64-1.548-2.957-2.622-4.246-.155-.186-.42-.28-.635-.416-.15.248-.384.48-.432.747-.213 1.198-.413 2.4-.544 3.608-.288 2.65-.572 5.3-.782 7.956-.196 2.496-.432 5.002-.4 7.5.037 3.04.39 6.075.503 9.116.082 2.18.648 4.206 1.602 6.137.17.345.53.596.803.89.282-.283.692-.516.826-.857.843-2.152 1.82-4.28 2.377-6.508.608-2.426.81-4.955 1.15-7.19zm54.028 22.593l-.297.013c-.033 1.686-.162 3.38-.072 5.06.096 1.774.42 3.534.61 5.304.193 1.812.304 3.632.524 5.44.235 1.92.547 3.83.848 5.74.045.285.173.583.343.816.16.22.426.364.645.54.07-.245.2-.49.2-.737-.007-2.356.144-4.732-.098-7.066-.355-3.435-.948-6.848-1.532-10.255-.28-1.637-.775-3.238-1.172-4.856zm-8.134-17.848c.03-2.26-.327-2.803-2.422-3.49-.29-.096-.58-.192-.873-.273-.592-.164-.937.005-.748.67.582 2.05 1.18 4.096 1.803 6.135.068.22.35.553.495.534.245-.03.58-.254.667-.478.4-1.017.725-2.063 1.077-3.098zM107.705 94.53c-.382-.714-.515-1.388-.43-2.18.085-.8.008-1.597-.657-2.214-.77-.715-1.1-.69-1.724.16-.54.736-1.047 1.51-1.677 2.164-1.328 1.38-2.314 1.4-3.78.19-2.378-1.96-4.078-4.428-5.255-7.243-.815-1.95-1.153-3.948-.01-5.944.356-.624.6-1.317.864-1.99 1.522-3.905 3.057-7.805 4.54-11.725.494-1.307.42-1.304 1.68-.828.638.24 1.326.348 1.984.54.398.115.88.175 1.156.437.813.77 1.804.96 2.835 1.033 1.06.073 2.125.13 3.182.08 1.43-.07 1.624.017 1.735 1.41.15 1.86.312 3.724.362 5.59.098 3.775.818 7.42 2.14 10.947.782 2.088 1.83 4.02 3.444 5.61.847.834 1.667 1.7 2.65 2.714 1.037.555 1.837 1.484 2.932 1.953.01.004.02.01.027.016.812.34 1.622.687 2.462.93 1.043.3 2.167.637 3.216.54 2.767-.258 5.23-1.14 6.842-3.728 1.006-1.616 1.75-3.27 1.826-5.145.067-1.62-.1-3.25-.128-4.877-.018-1.064.04-2.13.044-3.195.002-.586-.04-1.185-.784-1.33-.754-.15-.912.477-1.06.95-.95 3.022-2.512 5.706-4.403 8.22-1.156 1.537-2.36 3.02-4.308 3.592-1.18.346-1.82.164-2.435-.895-.588-1.01-1.087-2.103-1.438-3.218-2.114-6.717-1.997-13.69-2.244-20.615-.012-.35.37-.812.694-1.05.35-.26.843-.333 1.282-.458 3.336-.95 6.682-1.87 10.01-2.846 3.805-1.117 7.598-2.274 11.39-3.434 1.306-.4 1.7-1.1 1.04-2.085-.714-1.065-1.82-1.695-3.112-1.887-.745-.11-1.514-.074-2.256-.198-1.89-.32-3.753-.476-5.57.37-.655.303-1.35.53-2.044.736-3.397 1.007-6.79 2.023-10.203 2.974-1.098.305-1.327.094-1.36-1-.076-2.666-.204-5.334-.152-8 .085-4.3.337-8.6.44-12.903.053-2.17.027-4.35-.15-6.51-.077-.932-.37-2.127-1.015-2.673-1.4-1.187-2.817-2.404-4.634-3.073-2.588-.95-3.08-.75-3.19 2.03-.208 5.14-.428 10.28-.504 15.423-.087 5.903-.03 11.808-.02 17.712.002 1.35-.095 1.6-1.47 1.826-2.968.486-5.95.886-8.924 1.33-.706.106-.91-.228-.79-.854.262-1.347.555-2.687.802-4.036.7-3.83 1.22-7.65.035-11.505-.28-.912-.66-1.59-1.49-2.024-2.794-1.456-5.67-2.606-8.895-2.6-.714 0-1.268.188-1.623.833-.33.6-.725 1.173-.99 1.8-1.03 2.456-2.06 4.913-3.022 7.397-2.785 7.194-3.945 14.622-3.047 22.317.495 4.236 1.425 8.347 3.793 11.995.397.61.334 1.193.035 1.835-.935 2.003-1.833 4.024-2.74 6.04-.625 1.39-1.223 2.795-1.875 4.173-.167.354-.49.634-.74.948-.1-.365-.274-.726-.288-1.094-.048-1.218-.012-2.44-.057-3.658-.178-4.875-.55-9.75-.525-14.624.043-8.225.353-16.448.49-24.674.015-.868-.103-1.965-.615-2.572-1.32-1.567-2.854-2.963-4.38-4.342-1.26-1.137-2.505-.676-2.797.967-.864 4.853-1.172 9.757-1.347 14.677-.072 2.05.023 4.19-.544 6.12-1.807 6.14-3.856 12.21-5.875 18.287-1.23 3.708-3.057 7.142-5.128 10.445-.37.59-.69.58-.94-.054-.252-.634-.476-1.303-.56-1.975-.518-4.195-1.164-8.384-1.446-12.598-.468-6.99.58-13.922 1.24-20.862.36-3.79 1.082-7.554.73-11.39-.132-1.43-.346-2.868-1.53-3.815-1.066-.852-2.224-1.63-3.443-2.233-.702-.348-1.605-.364-2.42-.387-.648-.02-.98.445-1.08 1.11-.306 2.073-.676 4.137-.974 6.21-.828 5.77-1.614 11.538-2.052 17.364-.62 8.238-.142 16.376 1.367 24.47.604 3.245 1.817 6.112 4.696 8.175 1.767 1.267 3.395 2.7 5.446 3.508 1.925.757 3.802.82 5.516-.533 1.618-1.277 2.795-2.89 3.612-4.787 1.787-4.15 2.198-8.604 2.926-12.988.04-.244-.04-.527-.128-.768-.4-1.08-.17-4.12.464-5.277.042.542.088.994.11 1.447.13 2.626.247 5.253.377 7.88.356 7.232.922 14.447 1.887 21.627.136 1.01.01 1.952-.406 2.895-1.477 3.346-2.9 6.716-4.37 10.067-1.84 4.197-3.505 8.454-4.363 12.977-.417 2.205-.438 4.402.634 6.47.597 1.152 1.447 1.91 2.845 1.98 1.29.065 2.577.27 3.865.417 3.874.44 6.978-1.01 9.59-3.8 1.132-1.206 1.782-2.576 1.802-4.2.04-3.348.142-6.702-.016-10.043-.175-3.728-.595-7.445-.942-11.164-.293-3.143-.627-6.282-.954-9.42-.118-1.132.076-2.166.593-3.202 1.532-3.068 3-6.168 4.47-9.268.783-1.653 1.503-3.337 2.274-4.996.614-1.318.798-1.344 1.852-.397 1.05.94 2.112 1.87 3.16 2.815 2.394 2.166 5.217 3.534 8.26 4.527 1.37.448 2.712.353 4.048-.04 1.705-.503 2.475-2.258 1.635-3.83zm-32.787 45.193c-.35 1.042-.982 1.883-2.055 2.32-1.188.483-2.34 1.08-3.558 1.456-.96.296-1.45.017-1.53-.976-.107-1.342-.116-2.754.184-4.056.673-2.932 1.66-5.77 3.01-8.485.9-1.802 1.566-3.72 2.34-5.583.206-.492.408-.987.656-1.458.15-.287.384-.53.58-.79.106.3.284.597.307.904.304 4.063.595 8.126.866 12.19.034.528-.06 1.064-.094 1.596l.065.02c-.252.955-.458 1.926-.772 2.86zM93.11 73.427c-.11.28-.36.508-.547.76-.08-.28-.23-.56-.228-.837.016-1.56.07-3.12.1-4.254.828-4.872 1.986-9.21 3.487-13.458.355-1.004.65-2.028.983-3.04.094-.288.18-.595.345-.842.2-.296.48-.538.726-.804.146.365.39.723.418 1.097.053.756.063 1.532-.04 2.282-.695 5.063-1.534 10.09-3.61 14.823-.613 1.394-1.073 2.854-1.633 4.272zM16.726 114.427c-1.74.29-3.427.004-5.102-.578-1.527-.532-3.085-.97-4.633-1.44-3.323-1.006-5.12-3.43-5.954-6.653C-.522 99.74-.104 93.853 2.22 88.07c1.59-3.95 3.784-7.537 6.135-11.047.452-.674.92-1.344 1.29-2.063.522-1.005.65-2.04.205-3.162-1.8-4.54-2.658-9.227-2.61-14.158.036-3.842.304-7.62.96-11.396.71-4.087 2.19-7.896 3.933-11.62.62-1.323 1.24-2.65 1.96-3.92.347-.61.836-1.22 1.41-1.6 1.078-.71 2.257-1.266 3.406-1.862 2.322-1.204 4.79-1.16 7.21-.536 3.61.933 5.042 3.788 5.756 7.15.613 2.886.32 5.755-.325 8.584-1.41 6.177-2.68 12.397-4.403 18.486-1.123 3.967-2.898 7.754-4.48 11.58-.47 1.138-.367 2.012.39 2.908 2.36 2.786 4.697 5.59 7.063 8.37 1.233 1.447 2.515 2.853 3.766 4.285.86.984 1.22 1.025 2.143.038.8-.856 1.534-1.78 2.288-2.68.512-.615 1.05-1.203 1.946-.847.87.347.956 1.125.91 1.937-.12 2.194-.45 4.358-1.308 6.384-.586 1.384-.44 2.474.69 3.5.687.62 1.298 1.35 1.836 2.106 1.396 1.96 3.04 3.67 4.765 5.344 1.137 1.104 1.978 2.55 2.805 3.934.644 1.078-.31 2.583-1.57 2.637-.925.04-1.853.023-2.78.036-1.533.02-2.82-.562-3.96-1.57-2.182-1.93-4.397-3.825-6.57-5.768-.662-.594-1.065-.193-1.36.302-1.465 2.457-3.763 4.114-5.725 6.087-3.094 3.11-6.79 4.92-11.27 4.92zm-5.61-14.313l.257.05c.143 1.413.19 2.846.455 4.236.274 1.43.677 2.85 1.18 4.214.557 1.52 1.324 1.848 2.732 1.127 1.466-.75 2.957-1.543 4.22-2.585 3.128-2.58 5.972-5.458 8.276-8.84 1.106-1.625 1.137-1.714-.143-3.218-.105-.123-.22-.236-.33-.357-3.02-3.388-6.066-6.754-9.05-10.174-1.545-1.77-1.914-1.82-3.008.28-.723 1.387-1.258 2.88-1.796 4.355-.585 1.6-1.17 3.21-1.58 4.858-.5 1.995-.817 4.035-1.213 6.056zm6.288-43.228c.07-.132.168-.256.204-.396.662-2.55 1.425-5.08 1.944-7.66.576-2.86.94-5.764 1.36-8.654.04-.272-.16-.58-.25-.87-.19.234-.476.44-.553.705-.647 2.26-1.336 4.51-1.856 6.8-.747 3.285-1.124 6.625-.85 10.076z"/></g></svg>